<svg width="500" height="417" viewBox="0 0 500 417" fill="none" xmlns="http://www.w3.org/2000/svg">
<g clip-path="url(#clip0_5_21)">
<path d="M394.834 34.4357C394.272 34.0746 393.704 33.7323 393.142 33.3837C376.898 23.3715 359.488 15.2378 341.271 9.15046L337.047 65.3108H310.268V0.952367C308.582 0.616226 306.884 0.298761 305.185 -3.05176e-05V65.3108H273.362C255.843 65.3108 239.042 58.6037 226.655 46.6649C214.267 34.7261 207.308 18.5336 207.308 1.64962V1.64955C205.602 2.00437 203.91 2.38408 202.218 2.7887V65.3108H176.299L172.275 11.7587C153.554 18.6784 135.78 27.7781 119.351 38.8553C119.067 39.0421 118.783 39.235 118.505 39.4218C117.077 40.3866 115.669 41.3701 114.268 42.3661V256.618H190.657L189.307 238.597L181.879 139.654H331.46L324.032 238.597L322.682 256.618H398.225V36.602C397.101 35.8674 395.971 35.1453 394.834 34.4357ZM202.218 123.314H180.652L176.667 70.216H202.218V123.314ZM305.185 123.314H268.964V122.262C268.964 121.756 268.86 121.255 268.659 120.788C268.458 120.321 268.164 119.897 267.792 119.539C267.421 119.182 266.98 118.899 266.495 118.706C266.01 118.513 265.49 118.414 264.966 118.415H249.219C248.695 118.415 248.176 118.514 247.691 118.707C247.207 118.9 246.767 119.184 246.396 119.541C246.025 119.898 245.731 120.322 245.531 120.789C245.33 121.256 245.227 121.756 245.227 122.262V123.314H207.308V70.216H305.185V123.314ZM310.268 123.314V70.216H336.678L332.693 123.314H310.268Z" fill="#F2F2F2"/>
<path d="M477.793 389.393L478.298 378.453C483.561 375.741 489.432 374.309 495.4 374.28C487.186 380.752 488.213 393.228 482.644 401.931C480.886 404.632 478.519 406.918 475.72 408.618C472.92 410.318 469.76 411.39 466.472 411.752L459.599 415.808C458.656 410.741 458.864 405.537 460.208 400.555C461.553 395.572 464.002 390.93 467.388 386.948C469.31 384.732 471.514 382.758 473.948 381.073C475.594 385.256 477.793 389.393 477.793 389.393Z" fill="#F2F2F2"/>
<path d="M109.025 377.404L92.4382 372.564C90.2629 364.047 90.2778 355.146 92.4816 346.636C99.312 360.772 118.829 364.008 130.077 375.217C133.557 378.739 136.17 382.971 137.723 387.599C139.276 392.226 139.728 397.132 139.047 401.951L142.677 413.268C134.552 412.703 126.65 410.446 119.516 406.655C112.383 402.863 106.187 397.626 101.356 391.304C98.6816 387.731 96.4852 383.849 94.818 379.747C101.853 378.978 109.025 377.404 109.025 377.404Z" fill="#F2F2F2"/>
<path d="M464.887 414.019C464.884 414.351 464.747 414.668 464.505 414.903C464.386 415.018 464.244 415.109 464.087 415.171C463.931 415.233 463.764 415.265 463.595 415.264H458.402C458.232 415.265 458.064 415.233 457.907 415.171C457.75 415.108 457.607 415.017 457.487 414.901C457.367 414.785 457.272 414.648 457.207 414.496C457.143 414.345 457.109 414.183 457.11 414.019V262.669C457.11 259.332 455.947 256.625 454.52 256.618H65.3807C63.9468 256.625 62.7907 259.332 62.7843 262.669V413.092C62.7832 413.401 62.663 413.699 62.447 413.928C62.2311 414.157 61.9347 414.3 61.6152 414.331C60.5689 414.43 59.5225 414.517 58.4827 414.598C58.4568 414.598 58.431 414.604 58.4052 414.604C57.8368 414.654 57.2684 414.691 56.7 414.735H56.6936C56.3965 414.218 56.1123 413.689 55.8216 413.16C55.7284 412.98 55.6798 412.782 55.6795 412.581V254.819C55.6795 253.898 55.7183 252.971 55.7829 252.056C55.875 250.799 56.0367 249.548 56.2673 248.308C57.3588 242.525 59.8261 238.61 62.6293 238.597H457.265C457.674 238.6 458.078 238.683 458.454 238.84C459.004 239.075 459.502 239.411 459.92 239.83C460.486 240.398 460.971 241.036 461.36 241.729C462.742 244.075 463.73 247.574 464.079 251.645C464.079 251.682 464.086 251.719 464.086 251.757C464.176 252.765 464.221 253.792 464.215 254.819L464.305 268.159L464.363 276.114L464.538 301.076L464.602 309.94L464.887 414.019Z" fill="#E6E6E6"/>
<path d="M499.231 416.809L321.128 417C320.925 416.999 320.729 416.921 320.586 416.782C320.442 416.643 320.361 416.455 320.361 416.259C320.361 416.063 320.442 415.874 320.586 415.735C320.729 415.597 320.925 415.518 321.128 415.518L499.231 415.326C499.435 415.327 499.63 415.405 499.773 415.544C499.917 415.683 499.998 415.871 499.998 416.067C499.998 416.264 499.917 416.452 499.773 416.591C499.63 416.73 499.435 416.808 499.231 416.809Z" fill="#CACACA"/>
<path d="M278.162 194.377H246.618C246.172 194.378 245.744 194.549 245.429 194.854C245.114 195.158 244.937 195.571 244.938 196.001V244.025H279.847V196.001C279.847 195.788 279.804 195.576 279.719 195.379C279.634 195.182 279.51 195.003 279.354 194.852C279.197 194.702 279.012 194.582 278.807 194.5C278.603 194.419 278.383 194.377 278.162 194.377ZM262.496 221.664C261.51 221.66 260.565 221.28 259.868 220.608C259.17 219.935 258.776 219.025 258.772 218.074V212.535C258.772 211.583 259.164 210.67 259.863 209.997C260.561 209.323 261.508 208.945 262.496 208.945C263.484 208.945 264.432 209.323 265.13 209.997C265.829 210.67 266.221 211.583 266.221 212.535V218.074C266.217 219.025 265.823 219.935 265.125 220.608C264.428 221.28 263.483 221.66 262.496 221.664Z" fill="#2F2E41"/>
<path d="M330.396 119.429H195.558C194.4 119.431 193.289 119.876 192.47 120.665C191.651 121.454 191.19 122.525 191.188 123.641V211.333C191.189 212.45 191.65 213.521 192.469 214.31C193.289 215.1 194.4 215.544 195.558 215.545H330.396C331.555 215.544 332.666 215.1 333.485 214.31C334.304 213.521 334.765 212.45 334.766 211.333V123.641C334.764 122.525 334.303 121.454 333.484 120.665C332.665 119.876 331.554 119.431 330.396 119.429Z" fill="#3F3D56"/>
<path d="M329.268 122.471H196.682C196.062 122.472 195.468 122.71 195.03 123.134C194.592 123.557 194.345 124.13 194.345 124.728V210.247C194.346 210.844 194.593 211.416 195.031 211.838C195.469 212.26 196.063 212.498 196.682 212.499H329.268C329.888 212.498 330.482 212.26 330.92 211.838C331.358 211.416 331.604 210.844 331.605 210.247V124.728C331.605 124.13 331.359 123.557 330.921 123.134C330.483 122.71 329.888 122.472 329.268 122.471Z" fill="white"/>
<path d="M244.83 242.489V247.123C244.83 247.363 244.929 247.593 245.105 247.763C245.282 247.932 245.52 248.028 245.769 248.029H279.015C279.264 248.027 279.503 247.931 279.679 247.762C279.855 247.592 279.954 247.363 279.955 247.123V242.489H244.83Z" fill="#3F3D56"/>
<path d="M303.445 249.641H224.564C224.348 249.641 224.135 249.594 223.94 249.505C223.745 249.415 223.573 249.285 223.437 249.123C223.301 248.962 223.204 248.773 223.153 248.571C223.103 248.369 223.099 248.158 223.144 247.954L224.368 242.352C224.437 242.038 224.616 241.757 224.874 241.555C225.133 241.353 225.455 241.243 225.787 241.241H302.221C302.554 241.243 302.876 241.353 303.134 241.555C303.393 241.757 303.571 242.038 303.641 242.352L304.865 247.954C304.909 248.158 304.906 248.369 304.855 248.571C304.805 248.773 304.708 248.962 304.572 249.123C304.436 249.285 304.264 249.415 304.069 249.505C303.874 249.594 303.661 249.641 303.445 249.641Z" fill="#2F2E41"/>
<path d="M228.462 242.25H226.663C226.489 242.25 226.348 242.386 226.348 242.554V243.351C226.348 243.519 226.489 243.655 226.663 243.655H228.462C228.636 243.655 228.777 243.519 228.777 243.351V242.554C228.777 242.386 228.636 242.25 228.462 242.25Z" fill="#3F3D56"/>
<path d="M233.321 242.25H231.522C231.348 242.25 231.207 242.386 231.207 242.554V243.351C231.207 243.519 231.348 243.655 231.522 243.655H233.321C233.495 243.655 233.636 243.519 233.636 243.351V242.554C233.636 242.386 233.495 242.25 233.321 242.25Z" fill="#3F3D56"/>
<path d="M238.18 242.25H236.381C236.207 242.25 236.066 242.386 236.066 242.554V243.351C236.066 243.519 236.207 243.655 236.381 243.655H238.18C238.354 243.655 238.495 243.519 238.495 243.351V242.554C238.495 242.386 238.354 242.25 238.18 242.25Z" fill="#3F3D56"/>
<path d="M243.039 242.25H241.24C241.066 242.25 240.924 242.386 240.924 242.554V243.351C240.924 243.519 241.066 243.655 241.24 243.655H243.039C243.213 243.655 243.354 243.519 243.354 243.351V242.554C243.354 242.386 243.213 242.25 243.039 242.25Z" fill="#3F3D56"/>
<path d="M247.898 242.25H246.099C245.925 242.25 245.783 242.386 245.783 242.554V243.351C245.783 243.519 245.925 243.655 246.099 243.655H247.898C248.072 243.655 248.213 243.519 248.213 243.351V242.554C248.213 242.386 248.072 242.25 247.898 242.25Z" fill="#3F3D56"/>
<path d="M252.756 242.25H250.958C250.784 242.25 250.642 242.386 250.642 242.554V243.351C250.642 243.519 250.784 243.655 250.958 243.655H252.756C252.931 243.655 253.072 243.519 253.072 243.351V242.554C253.072 242.386 252.931 242.25 252.756 242.25Z" fill="#3F3D56"/>
<path d="M257.615 242.25H255.817C255.642 242.25 255.501 242.386 255.501 242.554V243.351C255.501 243.519 255.642 243.655 255.817 243.655H257.615C257.79 243.655 257.931 243.519 257.931 243.351V242.554C257.931 242.386 257.79 242.25 257.615 242.25Z" fill="#3F3D56"/>
<path d="M262.474 242.25H260.676C260.501 242.25 260.36 242.386 260.36 242.554V243.351C260.36 243.519 260.501 243.655 260.676 243.655H262.474C262.648 243.655 262.79 243.519 262.79 243.351V242.554C262.79 242.386 262.648 242.25 262.474 242.25Z" fill="#3F3D56"/>
<path d="M267.333 242.25H265.534C265.36 242.25 265.219 242.386 265.219 242.554V243.351C265.219 243.519 265.36 243.655 265.534 243.655H267.333C267.507 243.655 267.649 243.519 267.649 243.351V242.554C267.649 242.386 267.507 242.25 267.333 242.25Z" fill="#3F3D56"/>
<path d="M272.192 242.25H270.393C270.219 242.25 270.078 242.386 270.078 242.554V243.351C270.078 243.519 270.219 243.655 270.393 243.655H272.192C272.366 243.655 272.508 243.519 272.508 243.351V242.554C272.508 242.386 272.366 242.25 272.192 242.25Z" fill="#3F3D56"/>
<path d="M277.051 242.25H275.252C275.078 242.25 274.937 242.386 274.937 242.554V243.351C274.937 243.519 275.078 243.655 275.252 243.655H277.051C277.225 243.655 277.366 243.519 277.366 243.351V242.554C277.366 242.386 277.225 242.25 277.051 242.25Z" fill="#3F3D56"/>
<path d="M281.91 242.25H280.111C279.937 242.25 279.796 242.386 279.796 242.554V243.351C279.796 243.519 279.937 243.655 280.111 243.655H281.91C282.084 243.655 282.225 243.519 282.225 243.351V242.554C282.225 242.386 282.084 242.25 281.91 242.25Z" fill="#3F3D56"/>
<path d="M286.769 242.25H284.97C284.796 242.25 284.655 242.386 284.655 242.554V243.351C284.655 243.519 284.796 243.655 284.97 243.655H286.769C286.943 243.655 287.084 243.519 287.084 243.351V242.554C287.084 242.386 286.943 242.25 286.769 242.25Z" fill="#3F3D56"/>
<path d="M291.628 242.25H289.829C289.655 242.25 289.514 242.386 289.514 242.554V243.351C289.514 243.519 289.655 243.655 289.829 243.655H291.628C291.802 243.655 291.943 243.519 291.943 243.351V242.554C291.943 242.386 291.802 242.25 291.628 242.25Z" fill="#3F3D56"/>
<path d="M296.487 242.25H294.688C294.514 242.25 294.373 242.386 294.373 242.554V243.351C294.373 243.519 294.514 243.655 294.688 243.655H296.487C296.661 243.655 296.802 243.519 296.802 243.351V242.554C296.802 242.386 296.661 242.25 296.487 242.25Z" fill="#3F3D56"/>
<path d="M301.346 242.25H299.547C299.373 242.25 299.232 242.386 299.232 242.554V243.351C299.232 243.519 299.373 243.655 299.547 243.655H301.346C301.52 243.655 301.661 243.519 301.661 243.351V242.554C301.661 242.386 301.52 242.25 301.346 242.25Z" fill="#3F3D56"/>
<path d="M228.404 244.592H226.606C226.431 244.592 226.29 244.728 226.29 244.896V245.693C226.29 245.86 226.431 245.996 226.606 245.996H228.404C228.579 245.996 228.72 245.86 228.72 245.693V244.896C228.72 244.728 228.579 244.592 228.404 244.592Z" fill="#3F3D56"/>
<path d="M233.263 244.592H231.465C231.29 244.592 231.149 244.728 231.149 244.896V245.693C231.149 245.86 231.29 245.996 231.465 245.996H233.263C233.437 245.996 233.579 245.86 233.579 245.693V244.896C233.579 244.728 233.437 244.592 233.263 244.592Z" fill="#3F3D56"/>
<path d="M238.122 244.592H236.323C236.149 244.592 236.008 244.728 236.008 244.896V245.693C236.008 245.86 236.149 245.996 236.323 245.996H238.122C238.296 245.996 238.438 245.86 238.438 245.693V244.896C238.438 244.728 238.296 244.592 238.122 244.592Z" fill="#3F3D56"/>
<path d="M242.981 244.592H241.182C241.008 244.592 240.867 244.728 240.867 244.896V245.693C240.867 245.86 241.008 245.996 241.182 245.996H242.981C243.155 245.996 243.297 245.86 243.297 245.693V244.896C243.297 244.728 243.155 244.592 242.981 244.592Z" fill="#3F3D56"/>
<path d="M247.84 244.592H246.041C245.867 244.592 245.726 244.728 245.726 244.896V245.693C245.726 245.86 245.867 245.996 246.041 245.996H247.84C248.014 245.996 248.155 245.86 248.155 245.693V244.896C248.155 244.728 248.014 244.592 247.84 244.592Z" fill="#3F3D56"/>
<path d="M252.699 244.592H250.9C250.726 244.592 250.585 244.728 250.585 244.896V245.693C250.585 245.86 250.726 245.996 250.9 245.996H252.699C252.873 245.996 253.014 245.86 253.014 245.693V244.896C253.014 244.728 252.873 244.592 252.699 244.592Z" fill="#3F3D56"/>
<path d="M257.558 244.592H255.759C255.585 244.592 255.444 244.728 255.444 244.896V245.693C255.444 245.86 255.585 245.996 255.759 245.996H257.558C257.732 245.996 257.873 245.86 257.873 245.693V244.896C257.873 244.728 257.732 244.592 257.558 244.592Z" fill="#3F3D56"/>
<path d="M262.417 244.592H260.618C260.444 244.592 260.303 244.728 260.303 244.896V245.693C260.303 245.86 260.444 245.996 260.618 245.996H262.417C262.591 245.996 262.732 245.86 262.732 245.693V244.896C262.732 244.728 262.591 244.592 262.417 244.592Z" fill="#3F3D56"/>
<path d="M267.276 244.592H265.477C265.303 244.592 265.162 244.728 265.162 244.896V245.693C265.162 245.86 265.303 245.996 265.477 245.996H267.276C267.45 245.996 267.591 245.86 267.591 245.693V244.896C267.591 244.728 267.45 244.592 267.276 244.592Z" fill="#3F3D56"/>
<path d="M272.135 244.592H270.336C270.162 244.592 270.021 244.728 270.021 244.896V245.693C270.021 245.86 270.162 245.996 270.336 245.996H272.135C272.309 245.996 272.45 245.86 272.45 245.693V244.896C272.45 244.728 272.309 244.592 272.135 244.592Z" fill="#3F3D56"/>
<path d="M276.994 244.592H275.195C275.021 244.592 274.88 244.728 274.88 244.896V245.693C274.88 245.86 275.021 245.996 275.195 245.996H276.994C277.168 245.996 277.309 245.86 277.309 245.693V244.896C277.309 244.728 277.168 244.592 276.994 244.592Z" fill="#3F3D56"/>
<path d="M281.853 244.592H280.054C279.88 244.592 279.739 244.728 279.739 244.896V245.693C279.739 245.86 279.88 245.996 280.054 245.996H281.853C282.027 245.996 282.168 245.86 282.168 245.693V244.896C282.168 244.728 282.027 244.592 281.853 244.592Z" fill="#3F3D56"/>
<path d="M286.712 244.592H284.913C284.739 244.592 284.597 244.728 284.597 244.896V245.693C284.597 245.86 284.739 245.996 284.913 245.996H286.712C286.886 245.996 287.027 245.86 287.027 245.693V244.896C287.027 244.728 286.886 244.592 286.712 244.592Z" fill="#3F3D56"/>
<path d="M291.571 244.592H289.772C289.598 244.592 289.456 244.728 289.456 244.896V245.693C289.456 245.86 289.598 245.996 289.772 245.996H291.571C291.745 245.996 291.886 245.86 291.886 245.693V244.896C291.886 244.728 291.745 244.592 291.571 244.592Z" fill="#3F3D56"/>
<path d="M296.429 244.592H294.631C294.456 244.592 294.315 244.728 294.315 244.896V245.693C294.315 245.86 294.456 245.996 294.631 245.996H296.429C296.604 245.996 296.745 245.86 296.745 245.693V244.896C296.745 244.728 296.604 244.592 296.429 244.592Z" fill="#3F3D56"/>
<path d="M301.288 244.592H299.49C299.315 244.592 299.174 244.728 299.174 244.896V245.693C299.174 245.86 299.315 245.996 299.49 245.996H301.288C301.463 245.996 301.604 245.86 301.604 245.693V244.896C301.604 244.728 301.463 244.592 301.288 244.592Z" fill="#3F3D56"/>
<path d="M268.734 247.401H249.928C249.754 247.401 249.613 247.537 249.613 247.705V248.502C249.613 248.67 249.754 248.806 249.928 248.806H268.734C268.908 248.806 269.049 248.67 269.049 248.502V247.705C269.049 247.537 268.908 247.401 268.734 247.401Z" fill="#3F3D56"/>
<path d="M322.606 134.254H198.546C198.417 134.252 198.294 134.2 198.203 134.111C198.113 134.023 198.062 133.903 198.062 133.779C198.062 133.654 198.113 133.535 198.203 133.446C198.294 133.357 198.417 133.306 198.546 133.303H322.606C322.735 133.306 322.858 133.357 322.948 133.446C323.038 133.535 323.089 133.654 323.089 133.779C323.089 133.903 323.038 134.023 322.948 134.111C322.858 134.2 322.735 134.252 322.606 134.254Z" fill="#CACACA"/>
<path d="M206.991 130.875C208.587 130.875 209.882 129.6 209.882 128.027C209.882 126.454 208.587 125.178 206.991 125.178C205.394 125.178 204.099 126.454 204.099 128.027C204.099 129.6 205.394 130.875 206.991 130.875Z" fill="#3F3D56"/>
<path d="M216.979 130.875C218.575 130.875 219.87 129.6 219.87 128.027C219.87 126.454 218.575 125.178 216.979 125.178C215.382 125.178 214.087 126.454 214.087 128.027C214.087 129.6 215.382 130.875 216.979 130.875Z" fill="#3F3D56"/>
<path d="M226.967 130.875C228.564 130.875 229.858 129.6 229.858 128.027C229.858 126.454 228.564 125.178 226.967 125.178C225.37 125.178 224.075 126.454 224.075 128.027C224.075 129.6 225.37 130.875 226.967 130.875Z" fill="#3F3D56"/>
<path d="M316.592 125.884H309.497C309.356 125.887 309.222 125.943 309.124 126.04C309.026 126.136 308.97 126.267 308.97 126.402C308.97 126.538 309.026 126.668 309.124 126.765C309.222 126.861 309.356 126.917 309.497 126.92H316.592C316.733 126.917 316.867 126.861 316.965 126.765C317.063 126.668 317.119 126.538 317.119 126.402C317.119 126.267 317.063 126.136 316.965 126.04C316.867 125.943 316.733 125.887 316.592 125.884Z" fill="#3F3D56"/>
<path d="M316.592 127.828H309.497C309.356 127.831 309.222 127.886 309.124 127.983C309.026 128.08 308.97 128.21 308.97 128.346C308.97 128.481 309.026 128.611 309.124 128.708C309.222 128.805 309.356 128.861 309.497 128.863H316.592C316.733 128.861 316.867 128.805 316.965 128.708C317.063 128.611 317.119 128.481 317.119 128.346C317.119 128.21 317.063 128.08 316.965 127.983C316.867 127.886 316.733 127.831 316.592 127.828Z" fill="#3F3D56"/>
<path d="M316.592 129.769H309.497C309.356 129.771 309.222 129.827 309.124 129.924C309.026 130.021 308.97 130.151 308.97 130.286C308.97 130.422 309.026 130.552 309.124 130.649C309.222 130.746 309.356 130.802 309.497 130.804H316.592C316.733 130.802 316.867 130.746 316.965 130.649C317.063 130.552 317.119 130.422 317.119 130.286C317.119 130.151 317.063 130.021 316.965 129.924C316.867 129.827 316.733 129.771 316.592 129.769Z" fill="#3F3D56"/>
<path d="M270.486 162.032H254.984C253.819 162.032 252.876 162.942 252.876 164.064V164.064C252.876 165.186 253.819 166.096 254.984 166.096H270.486C271.65 166.096 272.594 165.186 272.594 164.064V164.064C272.594 162.942 271.65 162.032 270.486 162.032Z" fill="#536DFE"/>
<path d="M280.5 170.16H244.969C243.805 170.16 242.861 171.069 242.861 172.191V172.191C242.861 173.314 243.805 174.223 244.969 174.223H280.5C281.664 174.223 282.608 173.314 282.608 172.191C282.608 171.069 281.664 170.16 280.5 170.16Z" fill="#E6E6E6"/>
<path d="M280.5 178.287H244.969C243.805 178.287 242.861 179.197 242.861 180.319C242.861 181.441 243.805 182.351 244.969 182.351H280.5C281.664 182.351 282.608 181.441 282.608 180.319C282.608 179.197 281.664 178.287 280.5 178.287Z" fill="#E6E6E6"/>
<path d="M199.757 255.753H161.004C159.634 255.753 158.319 256.278 157.35 257.212C156.381 258.146 155.837 259.412 155.837 260.733C155.837 262.054 156.381 263.32 157.35 264.254C158.319 265.188 159.634 265.713 161.004 265.713H175.214V304.307H185.548V265.713H199.757C201.128 265.713 202.442 265.188 203.411 264.254C204.38 263.32 204.924 262.054 204.924 260.733C204.924 259.412 204.38 258.146 203.411 257.212C202.442 256.278 201.128 255.753 199.757 255.753Z" fill="#3F3D56"/>
<path d="M225.335 325.681H121.681C111.633 325.645 101.933 322.127 94.353 315.769C86.7735 309.41 81.8204 300.636 80.3986 291.049L76.7295 278.041C69.1353 251.088 57.5678 225.324 42.3805 201.536C35.439 190.672 31.8662 180.155 39.9811 170.029C40.0502 169.943 40.1182 169.858 40.185 169.774C46.6937 161.61 79.0895 159.842 89.6504 159.498C90.0677 159.485 90.4865 159.478 90.9068 159.478H155.378C155.799 159.478 156.218 159.485 156.635 159.498C162.328 159.658 167.87 161.301 172.673 164.251C177.476 167.201 181.36 171.35 183.914 176.256C186.64 181.265 187.907 186.892 187.583 192.54C187.258 198.187 185.353 203.644 182.07 208.333C159.423 241.119 152.489 261.678 159.588 274.991C166.454 287.869 187.503 294.453 225.829 295.711C236.128 296.049 240.855 303.778 240.888 310.816C240.92 317.672 236.376 325.243 226.322 325.661C225.995 325.674 225.666 325.681 225.335 325.681Z" fill="#3F3D56"/>
<path d="M139.29 414.385H178.043C179.413 414.385 180.728 413.86 181.697 412.926C182.666 411.992 183.21 410.725 183.21 409.405C183.21 408.084 182.666 406.817 181.697 405.883C180.728 404.949 179.413 404.425 178.043 404.425H163.833V320.39H153.499V404.425H139.29C137.919 404.425 136.605 404.949 135.636 405.883C134.667 406.817 134.123 408.084 134.123 409.405C134.123 410.725 134.667 411.992 135.636 412.926C136.605 413.86 137.919 414.385 139.29 414.385Z" fill="#3F3D56"/>
<path d="M136.195 162.597L137.007 167.355C137.392 169.662 138.783 185.958 137.752 187.903C137.661 184.273 130.647 178.565 126.103 179.868L118.971 181.396L114.544 182.345L110.941 183.106L100.472 185.31C100.454 185.193 100.441 185.069 100.422 184.952C100.398 184.804 100.373 184.657 100.342 184.51C100.147 183.564 99.7914 182.655 99.2895 181.82C99.2364 182.939 98.8939 184.026 98.2933 184.984C98.2768 185.009 98.2626 185.035 98.2506 185.062C98.0646 185.352 97.8594 185.631 97.6363 185.895C97.6259 185.902 97.6166 185.91 97.6085 185.92C97.6085 185.92 95.4574 152.872 95.6827 152.567C95.8477 152.35 96.0139 152.14 96.1877 151.934C96.3603 151.722 96.5279 151.517 96.708 151.31C96.7311 151.291 96.7507 151.267 96.766 151.242C97.2705 150.666 97.8049 150.115 98.3671 149.592C98.5323 149.438 98.7038 149.284 98.8754 149.129C101.495 146.794 104.624 145.054 108.033 144.038C108.418 143.924 108.817 143.82 109.223 143.715C109.625 143.616 110.033 143.523 110.445 143.442L110.584 143.415C110.78 143.376 110.984 143.342 111.181 143.309C111.429 143.267 111.679 143.23 111.923 143.201C115.095 142.761 118.326 142.936 121.427 143.716C121.433 143.715 121.434 143.721 121.441 143.72C124.029 144.372 126.489 145.427 128.723 146.845C132.588 149.305 134.092 153.316 135.161 157.82C135.535 159.366 135.85 160.975 136.195 162.597Z" fill="#2F2E41"/>
<path d="M174.365 380.505L181.041 384.001L198.714 360.451L188.86 355.293L174.365 380.505Z" fill="#FFB6B6"/>
<path d="M177.579 372.114L189.698 375.772L187.769 380.665L196.079 392.29C196.49 392.864 196.699 393.549 196.677 394.246C196.655 394.943 196.402 395.615 195.955 396.163C195.509 396.712 194.892 397.109 194.195 397.295C193.498 397.482 192.757 397.449 192.081 397.202L177.972 392.036L177.448 386.305L174.591 390.798L169.271 388.85L177.579 372.114Z" fill="#2F2E41"/>
<path d="M212.179 275.175C211.114 275.425 210.004 275.446 208.929 275.239C207.854 275.031 206.839 274.598 205.956 273.971C205.073 273.344 204.343 272.539 203.818 271.611C203.293 270.683 202.986 269.655 202.918 268.6L145.976 248.857L156.426 240.093L210.472 260.832C212.318 260.839 214.098 261.498 215.473 262.685C216.849 263.872 217.725 265.505 217.936 267.272C218.146 269.04 217.676 270.821 216.615 272.278C215.555 273.734 213.976 274.765 212.179 275.175Z" fill="#FFB6B6"/>
<path d="M130.068 199.947C130.068 199.947 120.478 200.151 119.625 210.703C118.773 221.255 139.699 247.356 142.941 251.66C146.183 255.964 182.196 261.262 182.196 261.262L194.438 252.697C181.574 244.664 169.835 238.504 161.956 238.781L130.068 199.947Z" fill="#536DFE"/>
<path d="M118.306 246.507L120.643 256.185C120.643 256.185 120.666 265.108 122.306 266.753C123.934 268.391 159.738 265.103 159.738 265.103C159.738 265.103 155.942 250.723 155.993 239.843L118.306 246.507Z" fill="#FFB6B6"/>
<path d="M193.944 370.29L181.026 363.443C180.781 347.243 190.891 325.32 202.883 302.357C176.064 306.802 150.763 308.226 128.878 302.849C125.285 301.934 122.21 299.694 120.317 296.612C118.424 293.531 117.865 289.855 118.762 286.379C118.847 286.038 118.945 285.7 119.057 285.366C121.676 277.665 115.803 272.837 121.205 264.366C135.412 259.69 148.908 258.369 161.25 262.499L168.983 278.977L207.311 274.197C209.163 273.983 211.04 274.125 212.835 274.614C214.629 275.104 216.306 275.93 217.767 277.046C219.229 278.163 220.447 279.547 221.351 281.119C222.255 282.691 222.827 284.42 223.034 286.207C223.086 286.608 223.119 287.01 223.135 287.415C215.385 322.431 206.695 353.938 193.944 370.29Z" fill="#2F2E41"/>
<path d="M120.081 179.636C128.75 177.926 134.339 169.768 132.566 161.413C130.792 153.059 122.327 147.672 113.658 149.381C104.989 151.091 99.3998 159.249 101.174 167.604C102.947 175.958 111.413 181.345 120.081 179.636Z" fill="#FFB6B6"/>
<path d="M113.103 185.241L127.869 184.401C128.492 184.365 129.11 184.518 129.639 184.837C130.167 185.157 130.579 185.627 130.817 186.183L134.99 195.932L152.332 209.746C152.332 209.746 159.198 218.167 159.214 229.043C159.23 239.918 161.65 265.09 161.65 265.09C161.65 265.09 151.629 251.496 145.444 255.112C144.392 255.727 144.021 256.985 142.919 257.621C142.369 257.938 141.099 257.629 140.544 257.947C132.021 262.823 123.132 267.587 122.302 266.752C120.671 265.112 118.693 256.731 118.693 256.731L105.177 208.87C104.444 206.352 104.299 203.709 104.751 201.13C105.203 198.551 106.242 196.101 107.793 193.955C108.737 192.673 109.726 191.72 110.646 191.563C112.71 191.139 111.612 186.68 113.103 185.241Z" fill="#536DFE"/>
<path d="M238.708 400.779L244.941 396.603L230.821 370.929L221.623 377.093L238.708 400.779Z" fill="#FFB6B6"/>
<path d="M239.65 383.553L229.882 391.967C214.35 375.288 202.608 351.895 192.658 325.329C166.586 317.97 146.924 306.102 129.76 292.01C123.937 287.261 119.572 281.161 124.538 275.376C124.77 275.106 125.013 274.844 125.266 274.592C131.129 268.784 145.999 269.891 154.708 264.57L174.163 284.612L172.939 289.985L209.482 301.914C211.24 302.508 212.859 303.432 214.245 304.632C215.631 305.832 216.757 307.284 217.558 308.905C218.358 310.527 218.818 312.285 218.91 314.078C219.002 315.872 218.725 317.665 218.095 319.355C217.958 319.737 217.804 320.112 217.634 320.482L239.65 383.553Z" fill="#2F2E41"/>
<path d="M235.074 399.086L245.051 391.513L248.152 395.812L262.799 395.769C263.523 395.766 264.228 395.987 264.812 396.399C265.396 396.81 265.828 397.391 266.046 398.056C266.263 398.721 266.254 399.435 266.02 400.095C265.787 400.755 265.34 401.325 264.746 401.723L252.354 410.026L247.151 407.205L249.384 412.015L244.711 415.146L235.074 399.086Z" fill="#2F2E41"/>
<path d="M134.907 305.858C133.898 305.445 132.995 304.824 132.261 304.038C131.528 303.253 130.982 302.321 130.662 301.31C130.343 300.299 130.257 299.233 130.411 298.187C130.566 297.14 130.956 296.139 131.555 295.254L98.1277 246.637L111.941 245.625L142.428 293.373C143.905 294.442 144.923 295.995 145.29 297.739C145.658 299.483 145.349 301.296 144.422 302.835C143.495 304.374 142.014 305.532 140.261 306.089C138.507 306.646 136.602 306.564 134.907 305.858Z" fill="#FFB6B6"/>
<path d="M115.688 198.255C115.688 198.255 107.871 192.896 100.646 200.868C93.4214 208.839 94.0247 241.819 93.9568 247.137C93.9355 248.803 96.4308 252.396 99.8686 256.547C101.412 258.411 103.145 260.387 104.926 262.351C105.957 263.487 105.069 265.853 106.104 266.958C107.133 268.056 110.085 267.894 111.064 268.914C115.711 273.754 119.486 277.438 119.486 277.438L134.612 277.618C134.783 266.78 127.082 257.106 117.189 247.757L115.688 198.255Z" fill="#536DFE"/>
<path d="M136.894 157.008C136.301 157.29 135.726 157.562 135.161 157.82C132.894 158.894 130.551 159.812 128.15 160.569C127.75 159.521 127.14 158.56 126.356 157.739C126.556 158.872 126.454 160.036 126.058 161.121C122.424 161.988 118.608 161.846 115.054 160.711C117.378 164.859 119.096 173.6 118.971 181.396C118.916 185.517 118.337 189.374 117.073 192.146L115.449 187.383C115.298 185.682 114.996 183.996 114.544 182.345C113.455 177.712 112.438 180.809 110.941 183.106L100.472 185.311C100.454 185.193 100.441 185.069 100.422 184.952C100.398 184.804 100.373 184.657 100.342 184.51C100.147 183.564 99.7914 182.655 99.2895 181.82C99.2364 182.939 98.8939 184.026 98.2933 184.984C98.2768 185.009 98.2626 185.035 98.2506 185.062C98.0646 185.352 97.8594 185.631 97.6362 185.895C97.6259 185.902 97.6165 185.91 97.6085 185.92C90.8493 186.791 86.1111 153.198 95.684 152.573C95.9623 152.555 96.0152 152.146 96.1877 151.934C96.3603 151.722 96.5278 151.517 96.708 151.31C96.7311 151.291 96.7507 151.267 96.766 151.242C97.2776 150.671 97.8071 150.121 98.3671 149.592C98.5323 149.438 98.7039 149.284 98.8754 149.129C101.503 146.805 104.63 145.069 108.034 144.044C108.419 143.93 108.817 143.82 109.223 143.715C109.625 143.616 110.033 143.523 110.445 143.442L110.584 143.415C110.78 143.376 110.984 143.342 111.181 143.309C111.429 143.267 111.679 143.23 111.923 143.201C112.84 143.647 113.625 144.31 114.204 145.128L120.893 143.809C121.07 143.774 121.248 143.745 121.428 143.722L121.441 143.72C129.791 142.372 135.16 148.842 136.894 157.008Z" fill="#2F2E41"/>
<path d="M100.44 151.069C99.0082 152.065 97.5015 153.091 95.754 153.338C94.0065 153.585 91.9606 152.771 91.477 151.134C90.8857 149.132 92.7612 147.309 94.4469 146.008L99.7922 141.883C100.771 141.046 101.876 140.358 103.069 139.841C103.669 139.587 104.32 139.466 104.974 139.487C105.629 139.508 106.27 139.671 106.851 139.963C107.425 140.337 107.891 140.846 108.203 141.443C108.516 142.039 108.664 142.702 108.635 143.37C108.559 144.708 108.101 145.999 107.312 147.102C106.319 148.593 105.024 149.875 103.505 150.87C101.985 151.866 100.272 152.555 98.4686 152.896" fill="#2F2E41"/>
<path d="M140.982 258.243H102.228C100.858 258.243 99.5438 258.768 98.5748 259.702C97.6058 260.636 97.0614 261.902 97.0614 263.223C97.0614 264.544 97.6058 265.81 98.5748 266.744C99.5438 267.678 100.858 268.203 102.228 268.203H116.438V306.797H126.772V268.203H140.982C142.352 268.203 143.666 267.678 144.635 266.744C145.604 265.81 146.149 264.544 146.149 263.223C146.149 261.902 145.604 260.636 144.635 259.702C143.666 258.768 142.352 258.243 140.982 258.243Z" fill="#3F3D56"/>
<path d="M284.151 416.186L0.769087 416.377C0.56551 416.377 0.370476 416.299 0.226733 416.16C0.0829902 416.021 0.00226593 415.832 0.00226593 415.636C0.00226593 415.44 0.0829902 415.252 0.226733 415.113C0.370476 414.974 0.56551 414.896 0.769087 414.895L284.151 414.704C284.355 414.704 284.55 414.783 284.694 414.922C284.837 415.061 284.918 415.249 284.918 415.445C284.918 415.641 284.837 415.829 284.694 415.968C284.55 416.107 284.355 416.186 284.151 416.186Z" fill="#CACACA"/>
<path d="M366.618 333.511L372.926 340.137L402.446 319.839L393.135 310.06L366.618 333.511Z" fill="#A0616A"/>
<path d="M379.675 342.888V342.882L379.035 336.265L378.745 336.134L377.046 335.356L369.031 331.702L368.863 331.528L367.255 329.835L358.348 337.715L370.413 350.389L378.687 359.079L378.964 358.83C380.098 357.829 381.016 356.622 381.666 355.279C382.315 353.935 382.683 352.482 382.749 351.001C382.815 349.52 382.578 348.042 382.05 346.65C381.523 345.257 380.716 343.979 379.675 342.888H379.675Z" fill="#2F2E41"/>
<path d="M333.934 399.609L342.862 402.223L357.571 370.278L344.394 366.42L333.934 399.609Z" fill="#A0616A"/>
<path d="M357.05 406.761C356.33 405.451 355.347 404.292 354.159 403.352C352.97 402.411 351.599 401.708 350.126 401.283L346.076 395.899L345.76 395.924L335.057 396.87L334.818 396.801L332.545 396.135L329.031 407.284L357.818 415.712L357.928 415.358C358.377 413.94 358.531 412.45 358.38 410.975C358.229 409.499 357.777 408.067 357.05 406.761Z" fill="#2F2E41"/>
<path d="M407.552 232.352C407.552 232.352 464.552 285.393 428.518 301.81H417.38C417.38 301.81 414.033 290.35 406.371 280.686C405.318 279.359 401.376 279.629 400.281 278.335C393.597 270.438 386.35 263.655 381.345 263.924L382.543 300.572L384.48 313.644C385.498 320.402 356.783 379.405 356.783 379.405L338.735 372.569C338.735 372.569 357.539 323.971 357.759 316.965L342.69 239.93L407.552 232.352Z" fill="#2F2E41"/>
<path d="M412.305 234.968C412.014 235.368 411.635 235.7 411.194 235.939C410.468 236.335 409.681 236.617 408.862 236.774C396.029 239.581 354.104 245.401 343.221 242.625C341.884 242.289 341.012 241.816 340.728 241.193C339.817 239.226 339.934 230.916 340.47 220.882C340.567 219.002 342.717 216.966 342.847 214.999C342.937 213.524 341.006 212.136 341.109 210.636C341.82 200.489 342.737 190.15 343.35 183.614C343.738 179.412 344.003 176.785 344.003 176.785L337.382 136.554L337.692 136.062L338.041 135.894L359.388 125.71L360.55 122.847C360.887 122.022 361.473 121.314 362.232 120.814C362.99 120.313 363.887 120.044 364.807 120.039L378.868 119.983C379.597 119.98 380.317 120.144 380.967 120.462C381.618 120.78 382.18 121.244 382.607 121.814L386.418 126.899L411.608 142.461L411.511 142.748L399.691 177.414L399.633 180.115V180.121L399.194 201.846L400.414 204.79L399.039 209.621C399.039 209.621 399.672 215.267 403.062 219.462C406.137 223.272 410.051 227.243 411.821 230.468V230.474C412.802 232.254 413.132 233.798 412.305 234.968Z" fill="#536DFE"/>
<path d="M431.254 298.66L428.208 302.37C428.208 302.37 400.187 321.263 399.225 323.029L394.796 327.067L384.082 316.029L389.654 309.298C394.113 303.911 399.874 299.66 406.433 296.917L414.973 289.615L431.254 298.66Z" fill="#2F2E41"/>
<path d="M413.45 245.632L408.347 198.03L407 178.439L421.282 175.95C421.282 175.95 420.717 189.959 422.588 197.862C424.434 205.661 422.832 244.587 422.718 245.628C423.767 246.532 424.507 247.721 424.839 249.039C425.171 250.357 425.08 251.741 424.579 253.007C424.077 254.274 423.188 255.365 422.029 256.134C420.871 256.904 419.497 257.316 418.09 257.317C416.683 257.317 415.309 256.906 414.149 256.138C412.99 255.369 412.1 254.28 411.597 253.013C411.094 251.747 411.002 250.363 411.333 249.045C411.663 247.727 412.402 246.537 413.45 245.632Z" fill="#A0616A"/>
<path d="M427.382 207.895L409.024 211.557L407.419 205.39L405.547 203.476L401.809 184.601L396.445 173.543L397.839 135.731L411.463 142.695L411.48 142.708C413.563 144.888 415 148.008 417.388 151.139C424.912 161.004 425.747 184.977 425.519 198.108C425.515 198.323 425.74 198.551 426.01 198.79C427.291 199.924 428.128 201.448 428.377 203.107C428.627 204.766 428.275 206.457 427.382 207.895V207.895Z" fill="#536DFE"/>
<path d="M330.321 247.499L335.424 199.898L336.771 180.307L322.489 177.818C322.489 177.818 323.055 191.826 321.184 199.73C319.337 207.529 320.939 246.454 321.053 247.495C320.004 248.399 319.264 249.589 318.932 250.906C318.6 252.224 318.691 253.608 319.193 254.875C319.694 256.142 320.583 257.232 321.742 258.002C322.9 258.771 324.274 259.183 325.681 259.184C327.088 259.185 328.462 258.774 329.622 258.005C330.781 257.237 331.671 256.147 332.174 254.881C332.677 253.614 332.769 252.231 332.438 250.912C332.108 249.594 331.369 248.404 330.321 247.499Z" fill="#A0616A"/>
<path d="M347.329 175.409L343.35 183.614L341.962 186.471L338.222 205.344L336.355 207.255L334.747 213.424L333.991 213.275L320.363 210.555L316.391 209.764C315.496 208.326 315.143 206.635 315.393 204.976C315.642 203.316 316.479 201.791 317.76 200.657C318.032 200.421 318.258 200.19 318.251 199.972C318.025 186.844 318.858 162.872 326.383 153.006C328.773 149.875 330.207 146.756 332.293 144.578C332.299 144.571 332.299 144.565 332.306 144.565L337.382 136.554L337.692 136.062L338.041 135.894L347.329 175.409Z" fill="#536DFE"/>
<path d="M371.431 116.126C381.764 116.126 390.14 108.053 390.14 98.0949C390.14 88.1369 381.764 80.0643 371.431 80.0643C361.099 80.0643 352.723 88.1369 352.723 98.0949C352.723 108.053 361.099 116.126 371.431 116.126Z" fill="#A0616A"/>
<path d="M392.463 90.1852C392.399 87.1101 392.037 83.1761 389.802 80.0388C387.916 77.3994 384.112 75.3079 380.566 76.3536C380.606 75.6703 380.448 74.9897 380.111 74.3875C379.773 73.7853 379.269 73.2851 378.654 72.9424C377.311 72.1519 375.696 72.0087 374.269 71.878C370.671 71.5543 366.945 71.2182 363.302 71.8842C359.213 72.6312 355.868 74.6605 354.13 77.4554L354.091 77.5426L353.736 79.1984C353.689 79.4205 353.592 79.63 353.453 79.8127C353.313 79.9953 353.135 80.1468 352.929 80.2566C352.723 80.368 352.494 80.4341 352.258 80.4503C352.023 80.4664 351.786 80.4322 351.566 80.35C351.325 80.2629 351.064 80.2379 350.81 80.2775C350.556 80.3171 350.317 80.42 350.117 80.5759C349.917 80.7318 349.762 80.9354 349.668 81.1665C349.575 81.3977 349.545 81.6483 349.583 81.8938L349.68 82.5536L348.653 82.3669C348.395 82.3188 348.129 82.3378 347.881 82.4222C347.634 82.5065 347.414 82.653 347.245 82.8465C347.076 83.04 346.963 83.2735 346.919 83.523C346.875 83.7724 346.9 84.0287 346.993 84.2654L347.277 85.0186C347.065 85.0214 346.856 85.0652 346.662 85.1475C346.467 85.2299 346.292 85.3491 346.147 85.498C345.94 85.715 345.809 85.9898 345.774 86.283C345.739 86.5761 345.802 86.8723 345.953 87.1289C347.104 89.0224 348.736 90.6032 350.694 91.7228C351.575 92.2341 352.525 92.6258 353.517 92.8868C353.723 92.9428 353.936 92.9926 354.156 93.0362C362.086 94.6833 370.262 94.9196 378.28 93.7334C377.808 95.258 377.626 96.8524 377.744 98.4393C378.002 100.425 379.21 102.062 380.825 102.61C381.19 102.729 381.566 102.817 381.948 102.871C382.314 102.929 382.675 103.014 383.027 103.127C383.547 103.31 384.007 103.622 384.361 104.032C384.715 104.442 384.95 104.934 385.043 105.46C385.136 105.986 385.083 106.526 384.891 107.025C384.698 107.525 384.371 107.967 383.944 108.306C383.944 108.306 385.636 109.656 385.85 109.588C386.681 109.234 387.377 108.637 387.839 107.882C391.062 103.413 392.618 97.462 392.463 90.1852Z" fill="#2F2E41"/>
</g>
<defs>
<clipPath id="clip0_5_21">
<rect width="500" height="417" fill="white"/>
</clipPath>
</defs>
</svg>
